<svg xmlns="http://www.w3.org/2000/svg" xmlns:xlink="http://www.w3.org/1999/xlink" id="processonSvg1000" viewBox="136.0 111.0 762.9671772428884 435.0" width="762.9671772428884" height="435.0"><defs id="ProcessOnDefs1001"/><g id="ProcessOnG1002"><path id="ProcessOnPath1003" d="M136.0 111.0H898.9671772428884V546.0H136.0V111.0Z" fill="none"/><g id="ProcessOnG1004"><g id="ProcessOnG1005" transform="matrix(1.0,0.0,0.0,1.0,304.0,168.0)" opacity="1.0"><path id="ProcessOnPath1006" d="M0.0 20.0C0.0 -6.666666666666667 120.0 -6.666666666666667 120.0 20.0C120.0 46.666666666666664 0.0 46.666666666666664 0.0 20.0Z" stroke="#323232" stroke-width="2.0" stroke-dasharray="none" opacity="1.0" fill="#ffffff"/><g id="ProcessOnG1007" transform="matrix(1.0,0.0,0.0,1.0,10.0,11.875)"><text id="ProcessOnText1008" fill="#000000" font-size="13" x="49.0" y="13.325" font-family="微软雅黑" font-weight="normal" font-style="normal" text-decoration="none" family="微软雅黑" text-anchor="middle" size="13">第一层 IPS</text></g></g><g id="ProcessOnG1009" transform="matrix(1.0,0.0,0.0,1.0,485.7067833698031,168.0)" opacity="1.0"><path id="ProcessOnPath1010" d="M0.0 20.0C0.0 -6.666666666666667 120.0 -6.666666666666667 120.0 20.0C120.0 46.666666666666664 0.0 46.666666666666664 0.0 20.0Z" stroke="#323232" stroke-width="2.0" stroke-dasharray="none" opacity="1.0" fill="#ffffff"/><g id="ProcessOnG1011" transform="matrix(1.0,0.0,0.0,1.0,10.0,11.875)"><text id="ProcessOnText1012" fill="#000000" font-size="13" x="49.0" y="13.325" font-family="微软雅黑" font-weight="normal" font-style="normal" text-decoration="none" family="微软雅黑" text-anchor="middle" size="13">第一层 IPS</text></g></g><g id="ProcessOnG1013"><path id="ProcessOnPath1014" d="M424.0 188.0C448.6827133479212 188.0 461.02407002188187 188.0 485.7067833698031 188.0" stroke="#323232" stroke-width="2.0" stroke-dasharray="none" fill="none"/></g><g id="ProcessOnG1015" transform="matrix(1.0,0.0,0.0,1.0,718.0,168.0)" opacity="1.0"><path id="ProcessOnPath1016" d="M0.0 20.0C0.0 -6.666666666666667 120.0 -6.666666666666667 120.0 20.0C120.0 46.666666666666664 0.0 46.666666666666664 0.0 20.0Z" stroke="#323232" stroke-width="2.0" stroke-dasharray="none" opacity="1.0" fill="#ffffff"/><g id="ProcessOnG1017" transform="matrix(1.0,0.0,0.0,1.0,10.0,3.75)"><text id="ProcessOnText1018" fill="#000000" font-size="13" x="49.0" y="13.325" font-family="微软雅黑" font-weight="normal" font-style="normal" text-decoration="none" family="微软雅黑" text-anchor="middle" size="13">内容提供商</text><text id="ProcessOnText1019" fill="#000000" font-size="13" x="49.0" y="29.575" font-family="微软雅黑" font-weight="normal" font-style="normal" text-decoration="none" family="微软雅黑" text-anchor="middle" size="13">（如谷歌）</text></g></g><g id="ProcessOnG1020"><path id="ProcessOnPath1021" d="M605.7067833698031 188.0C650.6240700218818 187.99999999999997 673.0827133479212 188.0 718.0 188.0" stroke="#323232" stroke-width="2.0" stroke-dasharray="none" fill="none"/></g><g id="ProcessOnG1022"><path id="ProcessOnPath1023" d="M394.30540728933227 170.93923101204882C476.0 135.0 680.0 131.0 745.7274154677793 170.93923101204882" stroke="#323232" stroke-width="2.0" stroke-dasharray="none" fill="none"/></g><g id="ProcessOnG1024" transform="matrix(1.0,0.0,0.0,1.0,437.0,296.0)" opacity="1.0"><path id="ProcessOnPath1025" d="M0.0 16.0C0.0 -5.333333333333333 100.0 -5.333333333333333 100.0 16.0C100.0 37.333333333333336 0.0 37.333333333333336 0.0 16.0Z" stroke="#323232" stroke-width="2.0" stroke-dasharray="none" opacity="1.0" fill="#ffffff"/><g id="ProcessOnG1026" transform="matrix(1.0,0.0,0.0,1.0,10.0,7.875)"><text id="ProcessOnText1027" fill="#000000" font-size="13" x="39.0" y="13.325" font-family="微软雅黑" font-weight="normal" font-style="normal" text-decoration="none" family="微软雅黑" text-anchor="middle" size="13">区域 IPS</text></g></g><g id="ProcessOnG1028" transform="matrix(1.0,0.0,0.0,1.0,618.0,296.0)" opacity="1.0"><path id="ProcessOnPath1029" d="M0.0 16.0C0.0 -5.333333333333333 100.0 -5.333333333333333 100.0 16.0C100.0 37.333333333333336 0.0 37.333333333333336 0.0 16.0Z" stroke="#323232" stroke-width="2.0" stroke-dasharray="none" opacity="1.0" fill="#ffffff"/><g id="ProcessOnG1030" transform="matrix(1.0,0.0,0.0,1.0,10.0,7.875)"><text id="ProcessOnText1031" fill="#000000" font-size="13" x="39.0" y="13.325" font-family="微软雅黑" font-weight="normal" font-style="normal" text-decoration="none" family="微软雅黑" text-anchor="middle" size="13">区域 IPS</text></g></g><g id="ProcessOnG1032" transform="matrix(1.0,0.0,0.0,1.0,397.0,237.0)" opacity="1.0"><path id="ProcessOnPath1033" d="M0.0 0.0L40.0 0.0L40.0 32.0L0.0 32.0Z" stroke="#323232" stroke-width="2.0" stroke-dasharray="none" opacity="1.0" fill="#ffffff"/><g id="ProcessOnG1034" transform="matrix(1.0,0.0,0.0,1.0,10.0,-0.25)"><text id="ProcessOnText1035" fill="#000000" font-size="13" x="9.0" y="13.325" font-family="微软雅黑" font-weight="normal" font-style="normal" text-decoration="none" family="微软雅黑" text-anchor="middle" size="13">IX</text><text id="ProcessOnText1036" fill="#000000" font-size="13" x="9.0" y="29.575" font-family="微软雅黑" font-weight="normal" font-style="normal" text-decoration="none" family="微软雅黑" text-anchor="middle" size="13">P</text></g></g><g id="ProcessOnG1037" transform="matrix(1.0,0.0,0.0,1.0,583.0,237.0)" opacity="1.0"><path id="ProcessOnPath1038" d="M0.0 0.0L40.0 0.0L40.0 32.0L0.0 32.0Z" stroke="#323232" stroke-width="2.0" stroke-dasharray="none" opacity="1.0" fill="#ffffff"/><g id="ProcessOnG1039" transform="matrix(1.0,0.0,0.0,1.0,10.0,-0.25)"><text id="ProcessOnText1040" fill="#000000" font-size="13" x="9.0" y="13.325" font-family="微软雅黑" font-weight="normal" font-style="normal" text-decoration="none" family="微软雅黑" text-anchor="middle" size="13">IX</text><text id="ProcessOnText1041" fill="#000000" font-size="13" x="9.0" y="29.575" font-family="微软雅黑" font-weight="normal" font-style="normal" text-decoration="none" family="微软雅黑" text-anchor="middle" size="13">P</text></g></g><g id="ProcessOnG1042" transform="matrix(1.0,0.0,0.0,1.0,805.0,237.0)" opacity="1.0"><path id="ProcessOnPath1043" d="M0.0 0.0L40.0 0.0L40.0 32.0L0.0 32.0Z" stroke="#323232" stroke-width="2.0" stroke-dasharray="none" opacity="1.0" fill="#ffffff"/><g id="ProcessOnG1044" transform="matrix(1.0,0.0,0.0,1.0,10.0,-0.25)"><text id="ProcessOnText1045" fill="#000000" font-size="13" x="9.0" y="13.325" font-family="微软雅黑" font-weight="normal" font-style="normal" text-decoration="none" family="微软雅黑" text-anchor="middle" size="13">IX</text><text id="ProcessOnText1046" fill="#000000" font-size="13" x="9.0" y="29.575" font-family="微软雅黑" font-weight="normal" font-style="normal" text-decoration="none" family="微软雅黑" text-anchor="middle" size="13">P</text></g></g><g id="ProcessOnG1047"><path id="ProcessOnPath1048" d="M435.5 268.6698729810778L459.1736481776669 298.9848077530122" stroke="#323232" stroke-width="2.0" stroke-dasharray="none" fill="none"/></g><g id="ProcessOnG1049" transform="matrix(1.0,0.0,0.0,1.0,269.0,385.0)" opacity="1.0"><path id="ProcessOnPath1050" d="M0.0 16.0C0.0 -5.333333333333333 80.0 -5.333333333333333 80.0 16.0C80.0 37.333333333333336 0.0 37.333333333333336 0.0 16.0Z" stroke="#323232" stroke-width="2.0" stroke-dasharray="none" opacity="1.0" fill="#ffffff"/><g id="ProcessOnG1051" transform="matrix(1.0,0.0,0.0,1.0,10.0,7.875)"><text id="ProcessOnText1052" fill="#000000" font-size="13" x="29.0" y="13.325" font-family="微软雅黑" font-weight="normal" font-style="normal" text-decoration="none" family="微软雅黑" text-anchor="middle" size="13">接入 IPS</text></g></g><g id="ProcessOnG1053" transform="matrix(1.0,0.0,0.0,1.0,369.0,385.0)" opacity="1.0"><path id="ProcessOnPath1054" d="M0.0 16.0C0.0 -5.333333333333333 80.0 -5.333333333333333 80.0 16.0C80.0 37.333333333333336 0.0 37.333333333333336 0.0 16.0Z" stroke="#323232" stroke-width="2.0" stroke-dasharray="none" opacity="1.0" fill="#ffffff"/><g id="ProcessOnG1055" transform="matrix(1.0,0.0,0.0,1.0,10.0,7.875)"><text id="ProcessOnText1056" fill="#000000" font-size="13" x="29.0" y="13.325" font-family="微软雅黑" font-weight="normal" font-style="normal" text-decoration="none" family="微软雅黑" text-anchor="middle" size="13">接入 IPS</text></g></g><g id="ProcessOnG1057" transform="matrix(1.0,0.0,0.0,1.0,563.0,385.0)" opacity="1.0"><path id="ProcessOnPath1058" d="M0.0 16.0C0.0 -5.333333333333333 80.0 -5.333333333333333 80.0 16.0C80.0 37.333333333333336 0.0 37.333333333333336 0.0 16.0Z" stroke="#323232" stroke-width="2.0" stroke-dasharray="none" opacity="1.0" fill="#ffffff"/><g id="ProcessOnG1059" transform="matrix(1.0,0.0,0.0,1.0,10.0,7.875)"><text id="ProcessOnText1060" fill="#000000" font-size="13" x="29.0" y="13.325" font-family="微软雅黑" font-weight="normal" font-style="normal" text-decoration="none" family="微软雅黑" text-anchor="middle" size="13">接入 IPS</text></g></g><g id="ProcessOnG1061" transform="matrix(1.0,0.0,0.0,1.0,674.0,385.0)" opacity="1.0"><path id="ProcessOnPath1062" d="M0.0 16.0C0.0 -5.333333333333333 80.0 -5.333333333333333 80.0 16.0C80.0 37.333333333333336 0.0 37.333333333333336 0.0 16.0Z" stroke="#323232" stroke-width="2.0" stroke-dasharray="none" opacity="1.0" fill="#ffffff"/><g id="ProcessOnG1063" transform="matrix(1.0,0.0,0.0,1.0,10.0,7.875)"><text id="ProcessOnText1064" fill="#000000" font-size="13" x="29.0" y="13.325" font-family="微软雅黑" font-weight="normal" font-style="normal" text-decoration="none" family="微软雅黑" text-anchor="middle" size="13">接入 IPS</text></g></g><g id="ProcessOnG1065" transform="matrix(1.0,0.0,0.0,1.0,798.9671772428884,385.0)" opacity="1.0"><path id="ProcessOnPath1066" d="M0.0 16.0C0.0 -5.333333333333333 80.0 -5.333333333333333 80.0 16.0C80.0 37.333333333333336 0.0 37.333333333333336 0.0 16.0Z" stroke="#323232" stroke-width="2.0" stroke-dasharray="none" opacity="1.0" fill="#ffffff"/><g id="ProcessOnG1067" transform="matrix(1.0,0.0,0.0,1.0,10.0,7.875)"><text id="ProcessOnText1068" fill="#000000" font-size="13" x="29.0" y="13.325" font-family="微软雅黑" font-weight="normal" font-style="normal" text-decoration="none" family="微软雅黑" text-anchor="middle" size="13">接入 IPS</text></g></g><g id="ProcessOnG1069"><path id="ProcessOnPath1070" d="M346.08715574274765 207.00380530190824L309.0 385.0" stroke="#323232" stroke-width="2.0" stroke-dasharray="none" fill="none"/></g><g id="ProcessOnG1071"><path id="ProcessOnPath1072" d="M325.65270364466613 386.9696155060244L397.2981333293569 268.0716371709404" stroke="#323232" stroke-width="2.0" stroke-dasharray="none" fill="none"/></g><g id="ProcessOnG1073"><path id="ProcessOnPath1074" d="M364.0 208.0L387.77645713530757 387.8977774788672" stroke="#323232" stroke-width="2.0" stroke-dasharray="none" fill="none"/></g><g id="ProcessOnG1075"><path id="ProcessOnPath1076" d="M409.0 385.0L472.34729635533387 327.0303844939756" stroke="#323232" stroke-width="2.0" stroke-dasharray="none" fill="none"/></g><g id="ProcessOnG1077"><path id="ProcessOnPath1078" d="M610.8256885145047 385.9923893961835L634.5176380902051 324.06814834742187" stroke="#323232" stroke-width="2.0" stroke-dasharray="none" fill="none"/></g><g id="ProcessOnG1079"><path id="ProcessOnPath1080" d="M386.8263518223331 206.0151922469878L397.4142135623731 237.4142135623731" stroke="#323232" stroke-width="2.0" stroke-dasharray="none" fill="none"/></g><g id="ProcessOnG1081"><path id="ProcessOnPath1082" d="M436.5857864376269 237.4142135623731L736.0588831870886 202.18092213764228" stroke="#323232" stroke-width="2.0" stroke-dasharray="none" fill="none"/></g><g id="ProcessOnG1083"><path id="ProcessOnPath1084" d="M534.0 207.0L487.0 296.0" stroke="#323232" stroke-width="2.0" stroke-dasharray="none" fill="none"/></g><g id="ProcessOnG1085"><path id="ProcessOnPath1086" d="M574.8263518223331 205.0151922469878L583.638304088578 240.1471528727021" stroke="#323232" stroke-width="2.0" stroke-dasharray="none" fill="none"/></g><g id="ProcessOnG1087"><path id="ProcessOnPath1088" d="M594.5773817382593 200.09369221296333L805.5355339059328 237.53553390593274" stroke="#323232" stroke-width="2.0" stroke-dasharray="none" fill="none"/></g><g id="ProcessOnG1089"><path id="ProcessOnPath1090" d="M537.0 312.0L618.0 312.0" stroke="#323232" stroke-width="2.0" stroke-dasharray="none" fill="none"/></g><g id="ProcessOnG1091"><path id="ProcessOnPath1092" d="M524.6579798566743 301.9396926207859L583.2981333293569 268.0716371709404" stroke="#323232" stroke-width="2.0" stroke-dasharray="none" fill="none"/></g><g id="ProcessOnG1093"><path id="ProcessOnPath1094" d="M643.1736481776668 297.9848077530122L622.3618442752845 266.947879140046" stroke="#323232" stroke-width="2.0" stroke-dasharray="none" fill="none"/></g><g id="ProcessOnG1095"><path id="ProcessOnPath1096" d="M622.467911113762 238.28557521937307L749.3801191124454 205.0303844939756" stroke="#323232" stroke-width="2.0" stroke-dasharray="none" fill="none"/></g><g id="ProcessOnG1097"><path id="ProcessOnPath1098" d="M778.0 208.0L825.0 237.0" stroke="#323232" stroke-width="2.0" stroke-dasharray="none" fill="none"/></g><g id="ProcessOnG1099"><path id="ProcessOnPath1100" d="M833.0 269.0L838.9671772428884 385.0" stroke="#323232" stroke-width="2.0" stroke-dasharray="none" fill="none"/></g><g id="ProcessOnG1101"><path id="ProcessOnPath1102" d="M668.0 328.0L714.0 385.0" stroke="#323232" stroke-width="2.0" stroke-dasharray="none" fill="none"/></g><g id="ProcessOnG1103"><path id="ProcessOnPath1104" d="M825.0 269.0L735.7411809548975 387.9659258262891" stroke="#323232" stroke-width="2.0" stroke-dasharray="none" fill="none"/></g><g id="ProcessOnG1105"><path id="ProcessOnPath1106" d="M697.4823619097949 298.93185165257813L805.8678821817552 268.90423977855505" stroke="#323232" stroke-width="2.0" stroke-dasharray="none" fill="none"/></g><g id="ProcessOnG1107"><path id="ProcessOnPath1108" d="M768.0328227571116 207.0L726.6527036446662 385.9696155060244" stroke="#323232" stroke-width="2.0" stroke-dasharray="none" fill="none"/></g><g id="ProcessOnG1109" transform="matrix(1.0,0.0,0.0,1.0,468.0,385.0)" opacity="1.0"><path id="ProcessOnPath1110" d="M0.0 16.0C0.0 -5.333333333333333 80.0 -5.333333333333333 80.0 16.0C80.0 37.333333333333336 0.0 37.333333333333336 0.0 16.0Z" stroke="#323232" stroke-width="2.0" stroke-dasharray="none" opacity="1.0" fill="#ffffff"/><g id="ProcessOnG1111" transform="matrix(1.0,0.0,0.0,1.0,10.0,7.875)"><text id="ProcessOnText1112" fill="#000000" font-size="13" x="29.0" y="13.325" font-family="微软雅黑" font-weight="normal" font-style="normal" text-decoration="none" family="微软雅黑" text-anchor="middle" size="13">接入 IPS</text></g></g><g id="ProcessOnG1113"><path id="ProcessOnPath1114" d="M499.0 327.0L508.0 385.0" stroke="#323232" stroke-width="2.0" stroke-dasharray="none" fill="none"/></g><g id="ProcessOnG1115"><path id="ProcessOnPath1116" d="M825.0 269.0L634.5 391.5980762113533" stroke="#323232" stroke-width="2.0" stroke-dasharray="none" fill="none"/></g><g id="ProcessOnG1117"><path id="ProcessOnPath1118" d="M298.08715574274765 416.00380530190824L253.0 479.0" stroke="#323232" stroke-width="2.0" stroke-dasharray="none" fill="none"/></g><g id="ProcessOnG1119" transform="matrix(1.0,0.0,0.0,1.0,218.0,479.0)" opacity="1.0"><path id="ProcessOnPath1120" d="M0.0 20.0C0.0 -6.666666666666667 70.0 -6.666666666666667 70.0 20.0C70.0 46.666666666666664 0.0 46.666666666666664 0.0 20.0Z" stroke="#323232" stroke-width="2.0" stroke-dasharray="none" opacity="1.0" fill="#ffffff"/><g id="ProcessOnG1121" transform="matrix(1.0,0.0,0.0,1.0,10.0,11.875)"><text id="ProcessOnText1122" fill="#000000" font-size="13" x="24.0" y="13.325" font-family="微软雅黑" font-weight="normal" font-style="normal" text-decoration="none" family="微软雅黑" text-anchor="middle" size="13">端系统</text></g></g><g id="ProcessOnG1123" transform="matrix(1.0,0.0,0.0,1.0,156.0,430.0)" opacity="1.0"><path id="ProcessOnPath1124" d="M0.0 20.0C0.0 -6.666666666666667 70.0 -6.666666666666667 70.0 20.0C70.0 46.666666666666664 0.0 46.666666666666664 0.0 20.0Z" stroke="#323232" stroke-width="2.0" stroke-dasharray="none" opacity="1.0" fill="#ffffff"/><g id="ProcessOnG1125" transform="matrix(1.0,0.0,0.0,1.0,10.0,11.875)"><text id="ProcessOnText1126" fill="#000000" font-size="13" x="24.0" y="13.325" font-family="微软雅黑" font-weight="normal" font-style="normal" text-decoration="none" family="微软雅黑" text-anchor="middle" size="13">端系统</text></g></g><g id="ProcessOnG1127"><path id="ProcessOnPath1128" d="M211.73214521477792 433.71892336110994L273.2855752193731 408.46791111376206" stroke="#323232" stroke-width="2.0" stroke-dasharray="none" fill="none"/></g><g id="ProcessOnG1129"><path id="ProcessOnPath1130" d="M324.4770655435141 415.0228318114495L350.0 486.0" stroke="#323232" stroke-width="2.0" stroke-dasharray="none" fill="none"/></g><g id="ProcessOnG1131" transform="matrix(1.0,0.0,0.0,1.0,315.0,486.0)" opacity="1.0"><path id="ProcessOnPath1132" d="M0.0 20.0C0.0 -6.666666666666667 70.0 -6.666666666666667 70.0 20.0C70.0 46.666666666666664 0.0 46.666666666666664 0.0 20.0Z" stroke="#323232" stroke-width="2.0" stroke-dasharray="none" opacity="1.0" fill="#ffffff"/><g id="ProcessOnG1133" transform="matrix(1.0,0.0,0.0,1.0,10.0,11.875)"><text id="ProcessOnText1134" fill="#000000" font-size="13" x="24.0" y="13.325" font-family="微软雅黑" font-weight="normal" font-style="normal" text-decoration="none" family="微软雅黑" text-anchor="middle" size="13">端系统</text></g></g><g id="ProcessOnG1135" transform="matrix(1.0,0.0,0.0,1.0,413.0,467.0)" opacity="1.0"><path id="ProcessOnPath1136" d="M0.0 20.0C0.0 -6.666666666666667 70.0 -6.666666666666667 70.0 20.0C70.0 46.666666666666664 0.0 46.666666666666664 0.0 20.0Z" stroke="#323232" stroke-width="2.0" stroke-dasharray="none" opacity="1.0" fill="#ffffff"/><g id="ProcessOnG1137" transform="matrix(1.0,0.0,0.0,1.0,10.0,11.875)"><text id="ProcessOnText1138" fill="#000000" font-size="13" x="24.0" y="13.325" font-family="微软雅黑" font-weight="normal" font-style="normal" text-decoration="none" family="微软雅黑" text-anchor="middle" size="13">端系统</text></g></g><g id="ProcessOnG1139"><path id="ProcessOnPath1140" d="M338.1547634765186 412.1873844259267L432.8117333157177 469.7614807840235" stroke="#323232" stroke-width="2.0" stroke-dasharray="none" fill="none"/></g><g id="ProcessOnG1141" transform="matrix(1.0,0.0,0.0,1.0,618.0,467.0)" opacity="1.0"><path id="ProcessOnPath1142" d="M0.0 0.0L100.0 0.0L100.0 32.0L0.0 32.0Z" stroke="#ffffff" stroke-width="2.0" stroke-dasharray="none" opacity="1.0" fill="#ffffff"/><g id="ProcessOnG1143" transform="matrix(1.0,0.0,0.0,1.0,10.0,-4.0)"><text id="ProcessOnText1144" fill="#000000" font-size="32" x="39.0" y="32.8" font-family="微软雅黑" font-weight="normal" font-style="normal" text-decoration="none" family="微软雅黑" text-anchor="middle" size="32">......</text></g></g></g></g></svg>