<svg xmlns="http://www.w3.org/2000/svg" xmlns:xlink="http://www.w3.org/1999/xlink" id="processonSvg1000" viewBox="69.0 258.0 970.0 342.0" width="970.0" height="342.0"><defs id="ProcessOnDefs1001"><marker id="ProcessOnMarker1038" markerUnits="userSpaceOnUse" orient="auto" markerWidth="16.23606797749979" markerHeight="10.550836550532098" viewBox="-1.0 -1.3763819204711736 16.23606797749979 10.550836550532098" refX="-1.0" refY="3.8990363547948754"><path id="ProcessOnPath1039" d="M12.0 3.8990363547948754L0.0 7.798072709589751V0.0Z" stroke="#323232" stroke-width="2.0" fill="#323232" transform="matrix(1.0,0.0,0.0,1.0,0.0,0.0)"/></marker><marker id="ProcessOnMarker1042" markerUnits="userSpaceOnUse" orient="auto" markerWidth="16.23606797749979" markerHeight="10.550836550532098" viewBox="-1.0 -1.3763819204711736 16.23606797749979 10.550836550532098" refX="-1.0" refY="3.8990363547948754"><path id="ProcessOnPath1043" d="M12.0 3.8990363547948754L0.0 7.798072709589751V0.0Z" stroke="#323232" stroke-width="2.0" fill="#323232" transform="matrix(1.0,0.0,0.0,1.0,0.0,0.0)"/></marker><marker id="ProcessOnMarker1052" markerUnits="userSpaceOnUse" orient="auto" markerWidth="16.23606797749979" markerHeight="10.550836550532098" viewBox="-1.0 -1.3763819204711736 16.23606797749979 10.550836550532098" refX="-1.0" refY="3.8990363547948754"><path id="ProcessOnPath1053" d="M12.0 3.8990363547948754L0.0 7.798072709589751V0.0Z" stroke="#323232" stroke-width="2.0" fill="#323232" transform="matrix(1.0,0.0,0.0,1.0,0.0,0.0)"/></marker></defs><g id="ProcessOnG1002"><path id="ProcessOnPath1003" d="M69.0 258.0H1039.0V600.0H69.0V258.0Z" fill="none"/><g id="ProcessOnG1004"><g id="ProcessOnG1005" transform="matrix(1.0,0.0,0.0,1.0,662.0,415.0)" opacity="1.0"><path id="ProcessOnPath1006" d="M0.0 0.0L80.0 0.0L80.0 32.0L0.0 32.0Z" stroke="#ffffff" stroke-width="2.0" stroke-dasharray="none" opacity="1.0" fill="#ffffff"/><g id="ProcessOnG1007" transform="matrix(1.0,0.0,0.0,1.0,10.0,7.875)"><text id="ProcessOnText1008" fill="#000000" font-size="13" x="29.0" y="13.325" font-family="微软雅黑" font-weight="normal" font-style="normal" text-decoration="none" family="微软雅黑" text-anchor="middle" size="13">传播时延</text></g></g><g id="ProcessOnG1009" transform="matrix(1.0,0.0,0.0,1.0,516.952380952381,415.0)" opacity="1.0"><path id="ProcessOnPath1010" d="M0.0 0.0L80.0 0.0L80.0 32.0L0.0 32.0Z" stroke="#ffffff" stroke-width="2.0" stroke-dasharray="none" opacity="1.0" fill="#ffffff"/><g id="ProcessOnG1011" transform="matrix(1.0,0.0,0.0,1.0,10.0,7.875)"><text id="ProcessOnText1012" fill="#000000" font-size="13" x="29.0" y="13.325" font-family="微软雅黑" font-weight="normal" font-style="normal" text-decoration="none" family="微软雅黑" text-anchor="middle" size="13">传输时延</text></g></g><g id="ProcessOnG1013" transform="matrix(1.0,0.0,0.0,1.0,346.0,415.0)" opacity="1.0"><path id="ProcessOnPath1014" d="M0.0 0.0L100.0 0.0L100.0 32.0L0.0 32.0Z" stroke="#ffffff" stroke-width="2.0" stroke-dasharray="none" opacity="1.0" fill="#ffffff"/><g id="ProcessOnG1015" transform="matrix(1.0,0.0,0.0,1.0,10.0,7.875)"><text id="ProcessOnText1016" fill="#000000" font-size="13" x="39.0" y="13.325" font-family="微软雅黑" font-weight="normal" font-style="normal" text-decoration="none" family="微软雅黑" text-anchor="middle" size="13">结点处理时延</text></g></g><g id="ProcessOnG1017" transform="matrix(1.0,0.0,0.0,1.0,450.0,415.0)" opacity="1.0"><path id="ProcessOnPath1018" d="M0.0 0.0L80.0 0.0L80.0 32.0L0.0 32.0Z" stroke="#ffffff" stroke-width="2.0" stroke-dasharray="none" opacity="1.0" fill="#ffffff"/><g id="ProcessOnG1019" transform="matrix(1.0,0.0,0.0,1.0,10.0,7.875)"><text id="ProcessOnText1020" fill="#000000" font-size="13" x="29.0" y="13.325" font-family="微软雅黑" font-weight="normal" font-style="normal" text-decoration="none" family="微软雅黑" text-anchor="middle" size="13">排队时延</text></g></g><g id="ProcessOnG1021" transform="matrix(1.0,0.0,0.0,1.0,366.0,322.0)" opacity="1.0"><path id="ProcessOnPath1022" d="M0.0 30.166666666666668L30.166666666666668 0.0L150.83333333333334 0.0L181.0 30.166666666666668L181.0 72.0L0.0 72.0L0.0 30.166666666666668Z" stroke="#323232" stroke-width="2.0" stroke-dasharray="none" opacity="1.0" fill="#ffffff"/></g><g id="ProcessOnG1023" transform="matrix(1.0,0.0,0.0,1.0,489.8095238095238,354.0)" opacity="1.0"><path id="ProcessOnPath1024" d="M0.0 0.0L38.095238095238095 0.0L38.095238095238095 40.0L0.0 40.0Z" stroke="#323232" stroke-width="2.0" stroke-dasharray="none" opacity="1.0" fill="#ffffff"/></g><g id="ProcessOnG1025" transform="matrix(1.0,0.0,0.0,1.0,451.7142857142857,354.0)" opacity="1.0"><path id="ProcessOnPath1026" d="M0.0 0.0L38.095238095238095 0.0L38.095238095238095 40.0L0.0 40.0Z" stroke="#323232" stroke-width="2.0" stroke-dasharray="none" opacity="1.0" fill="#ffffff"/></g><g id="ProcessOnG1027" transform="matrix(-1.8369701987210297E-16,-1.0,1.0,-1.8369701987210297E-16,366.0,495.0)" opacity="1.0"><path id="ProcessOnPath1028" d="M100.0 0.0Q91.0 0.0 91.0 6.0L91.0 24.0Q91.0 30.0 78.0 30.0Q91.0 30.0 91.0 36.0L91.0 54.0Q91.0 60.0 100.0 60.0" stroke="#323232" stroke-width="2.0" stroke-dasharray="none" opacity="1.0" fill="none"/><path id="ProcessOnPath1029" d="M0.0 0.0L100.0 0.0L100.0 60.0L0.0 60.0Z" stroke="none" stroke-width="0.0" stroke-dasharray="none" opacity="1.0" fill="none"/></g><g id="ProcessOnG1030" transform="matrix(-1.8369701987210297E-16,-1.0,1.0,-1.8369701987210297E-16,452.0,495.0)" opacity="1.0"><path id="ProcessOnPath1031" d="M100.0 0.0Q91.0 0.0 91.0 7.6000000000000005L91.0 30.4Q91.0 38.0 78.0 38.0Q91.0 38.0 91.0 45.6L91.0 68.4Q91.0 76.0 100.0 76.0" stroke="#323232" stroke-width="2.0" stroke-dasharray="none" opacity="1.0" fill="none"/><path id="ProcessOnPath1032" d="M0.0 0.0L100.0 0.0L100.0 76.0L0.0 76.0Z" stroke="none" stroke-width="0.0" stroke-dasharray="none" opacity="1.0" fill="none"/></g><g id="ProcessOnG1033" transform="matrix(-1.8369701987210297E-16,-1.0,1.0,-1.8369701987210297E-16,527.952380952381,495.0)" opacity="1.0"><path id="ProcessOnPath1034" d="M100.0 0.0Q91.0 0.0 91.0 3.8000000000000003L91.0 15.2Q91.0 19.0 78.0 19.0Q91.0 19.0 91.0 22.8L91.0 34.2Q91.0 38.0 100.0 38.0" stroke="#323232" stroke-width="2.0" stroke-dasharray="none" opacity="1.0" fill="none"/><path id="ProcessOnPath1035" d="M0.0 0.0L100.0 0.0L100.0 38.0L0.0 38.0Z" stroke="none" stroke-width="0.0" stroke-dasharray="none" opacity="1.0" fill="none"/></g><g id="ProcessOnG1036"><path id="ProcessOnPath1037" d="M167.0 313.0L351.37255176057687 366.7367236287109" stroke="#323232" stroke-width="2.0" stroke-dasharray="none" fill="none" marker-end="url(#ProcessOnMarker1038)"/></g><g id="ProcessOnG1040"><path id="ProcessOnPath1041" d="M167.0 410.0L350.9942549846251 377.63920138461367" stroke="#323232" stroke-width="2.0" stroke-dasharray="none" fill="none" marker-end="url(#ProcessOnMarker1042)"/></g><g id="ProcessOnG1044" transform="matrix(1.0,0.0,0.0,1.0,217.71428571428572,308.0)" opacity="1.0"><path id="ProcessOnPath1045" d="M0.0 0.0L38.095238095238095 0.0L38.095238095238095 40.0L0.0 40.0Z" stroke="#323232" stroke-width="2.0" stroke-dasharray="none" opacity="1.0" fill="#ffffff"/></g><g id="ProcessOnG1046" transform="matrix(1.0,0.0,0.0,1.0,217.71428571428572,375.0)" opacity="1.0"><path id="ProcessOnPath1047" d="M0.0 0.0L38.095238095238095 0.0L38.095238095238095 40.0L0.0 40.0Z" stroke="#323232" stroke-width="2.0" stroke-dasharray="none" opacity="1.0" fill="#ffffff"/></g><g id="ProcessOnG1048" transform="matrix(1.0,0.0,0.0,1.0,838.0,322.0)" opacity="1.0"><path id="ProcessOnPath1049" d="M0.0 30.166666666666668L30.166666666666668 0.0L150.83333333333334 0.0L181.0 30.166666666666668L181.0 72.0L0.0 72.0L0.0 30.166666666666668Z" stroke="#323232" stroke-width="2.0" stroke-dasharray="none" opacity="1.0" fill="#ffffff"/></g><g id="ProcessOnG1050"><path id="ProcessOnPath1051" d="M547.0 374.0L822.7639320225002 374.0" stroke="#323232" stroke-width="2.0" stroke-dasharray="none" fill="none" marker-end="url(#ProcessOnMarker1052)"/></g><g id="ProcessOnG1054" transform="matrix(1.0,0.0,0.0,1.0,527.9047619047619,354.0)" opacity="1.0"><path id="ProcessOnPath1055" d="M0.0 0.0L38.095238095238095 0.0L38.095238095238095 40.0L0.0 40.0Z" stroke="#323232" stroke-width="2.0" stroke-dasharray="none" opacity="1.0" fill="#ffffff"/></g><g id="ProcessOnG1056"><path id="ProcessOnPath1057" d="M546.952380952381 354.0L546.952380952381 394.0" stroke="#323232" stroke-width="2.0" stroke-dasharray="10.0 4.0" fill="none"/></g><g id="ProcessOnG1058" transform="matrix(-1.8369701987210297E-16,-1.0,1.0,-1.8369701987210297E-16,567.0,495.0)" opacity="1.0"><path id="ProcessOnPath1059" d="M100.0 0.0Q91.0 0.0 91.0 9.0L91.0 126.0Q91.0 135.0 78.0 135.0Q91.0 135.0 91.0 144.0L91.0 261.0Q91.0 270.0 100.0 270.0" stroke="#323232" stroke-width="2.0" stroke-dasharray="none" opacity="1.0" fill="none"/><path id="ProcessOnPath1060" d="M0.0 0.0L100.0 0.0L100.0 270.0L0.0 270.0Z" stroke="none" stroke-width="0.0" stroke-dasharray="none" opacity="1.0" fill="none"/></g><g id="ProcessOnG1061" transform="matrix(1.0,0.0,0.0,1.0,680.7142857142858,354.0)" opacity="1.0"><path id="ProcessOnPath1062" d="M0.0 0.0L38.095238095238095 0.0L38.095238095238095 40.0L0.0 40.0Z" stroke="#323232" stroke-width="2.0" stroke-dasharray="none" opacity="1.0" fill="#ffffff"/></g><g id="ProcessOnG1063" transform="matrix(1.0,0.0,0.0,1.0,89.0,375.0)" opacity="1.0"><g id="ProcessOnG1065" transform="matrix(1.0,0.0,0.0,1.0,0.0,0.0)"> <g id="g12" transform="scale(0.1,0.1)"> <path id="path22" fill="#02709F" d="M-0.005,597.871H667.93V472.695H-0.005V597.871z"/> <path id="path24" fill="none" stroke="#FFFFFF" stroke-width="3.9999" d="M-0.005,597.871H667.93V472.695H-0.005V597.871z"/> <path id="path26" fill="#02709F" d="M463.232,543.613h168.408"/> <path id="path28" fill="none" stroke="#FFFFFF" stroke-width="3.9999" d="M463.232,543.613h168.408"/> <path id="path30" fill="#02709F" d="M463.232,537.578h168.408"/> <path id="path32" fill="none" stroke="#FFFFFF" stroke-width="3.9999" d="M463.232,537.578h168.408"/> <path id="path34" fill="#02709F" d="M780,479.023v-112.09L667.881,473.301v124.57L780,479.023"/> <path id="path36" fill="none" stroke="#FFFFFF" stroke-width="3.9999" d="M780,479.023v-112.09L667.881,473.301v124.57L780,479.023 z"/> <path id="path38" fill="#02709F" d="M549.229,700v-27.637l60.781-84.414v51.563L549.229,700"/> <path id="path40" fill="none" stroke="#FFFFFF" stroke-width="3.9999" d="M549.229,700v-27.637l60.781-84.414v51.563L549.229,700z" /> <path id="path42" fill="#02709F" d="M14.814,700h534.414v-27.637H14.814V700z"/> <path id="path44" fill="none" stroke="#FFFFFF" stroke-width="3.9999" d="M14.814,700h534.414v-27.637H14.814V700z"/> <path id="path46" fill="#02709F" d="M549.229,672.363H14.814l61.782-84.414H610.01L549.229,672.363"/> <path id="path48" fill="none" stroke="#FFFFFF" stroke-width="3.9999" d="M549.229,672.363H14.814l61.782-84.414H610.01 L549.229,672.363z"/> <path id="path50" fill="#02709F" d="M780,366.934H111.938L-0.005,472.695H667.93L780,366.934"/> <path id="path52" fill="none" stroke="#FFFFFF" stroke-width="3.9999" d="M780,366.934H111.938L-0.005,472.695H667.93L780,366.934z "/> <path id="path54" fill="#02709F" d="M119.512,410.859h460.313V72.798H119.512V410.859z"/> <path id="path56" fill="none" stroke="#FFFFFF" stroke-width="3.9999" d="M119.512,410.859h460.313V72.798H119.512V410.859z"/> <path id="path58" fill="#02709F" d="M158.389,147.007c0-33.887,35.088-38.887,35.088-38.887s271.094,0,303.75,0 c42.676,0,41.309,40.098,41.309,40.098s0,165.674,0,189.6c0,23.745-32.676,33.726-32.676,33.726s-277.28,0-307.402,0 c-30.098,0-40.073-31.323-40.073-31.323V147.007"/> <path id="path60" fill="none" stroke="#FFFFFF" stroke-width="3.9999" d="M158.389,147.007c0-33.887,35.088-38.887,35.088-38.887 s271.094,0,303.75,0c42.676,0,41.309,40.098,41.309,40.098s0,165.674,0,189.6c0,23.745-32.676,33.726-32.676,33.726 s-277.28,0-307.402,0c-30.098,0-40.073-31.323-40.073-31.323V147.007H158.389z"/> <path id="path62" fill="#02709F" d="M657.207,0.093h-460.63l-77.061,72.705h460.308L657.207,0.093"/> <path id="path64" fill="none" stroke="#FFFFFF" stroke-width="3.9999" d="M657.207,0.093h-460.63l-77.061,72.705h460.308 L657.207,0.093z"/> <path id="path66" fill="#02709F" d="M657.207,338.735V-0.005l-76.621,72.803v338.062L657.207,338.735"/> <path id="path68" fill="none" stroke="#FFFFFF" stroke-width="3.9999" d="M657.207,338.735V-0.005l-76.621,72.803v338.062 L657.207,338.735z"/> </g>  </g></g><g id="ProcessOnG1066" transform="matrix(1.0,0.0,0.0,1.0,89.0,278.0)" opacity="1.0"><g id="ProcessOnG1068" transform="matrix(1.0,0.0,0.0,1.0,0.0,0.0)"> <g id="g12" transform="scale(0.1,0.1)"> <path id="path22" fill="#02709F" d="M-0.005,597.871H667.93V472.695H-0.005V597.871z"/> <path id="path24" fill="none" stroke="#FFFFFF" stroke-width="3.9999" d="M-0.005,597.871H667.93V472.695H-0.005V597.871z"/> <path id="path26" fill="#02709F" d="M463.232,543.613h168.408"/> <path id="path28" fill="none" stroke="#FFFFFF" stroke-width="3.9999" d="M463.232,543.613h168.408"/> <path id="path30" fill="#02709F" d="M463.232,537.578h168.408"/> <path id="path32" fill="none" stroke="#FFFFFF" stroke-width="3.9999" d="M463.232,537.578h168.408"/> <path id="path34" fill="#02709F" d="M780,479.023v-112.09L667.881,473.301v124.57L780,479.023"/> <path id="path36" fill="none" stroke="#FFFFFF" stroke-width="3.9999" d="M780,479.023v-112.09L667.881,473.301v124.57L780,479.023 z"/> <path id="path38" fill="#02709F" d="M549.229,700v-27.637l60.781-84.414v51.563L549.229,700"/> <path id="path40" fill="none" stroke="#FFFFFF" stroke-width="3.9999" d="M549.229,700v-27.637l60.781-84.414v51.563L549.229,700z" /> <path id="path42" fill="#02709F" d="M14.814,700h534.414v-27.637H14.814V700z"/> <path id="path44" fill="none" stroke="#FFFFFF" stroke-width="3.9999" d="M14.814,700h534.414v-27.637H14.814V700z"/> <path id="path46" fill="#02709F" d="M549.229,672.363H14.814l61.782-84.414H610.01L549.229,672.363"/> <path id="path48" fill="none" stroke="#FFFFFF" stroke-width="3.9999" d="M549.229,672.363H14.814l61.782-84.414H610.01 L549.229,672.363z"/> <path id="path50" fill="#02709F" d="M780,366.934H111.938L-0.005,472.695H667.93L780,366.934"/> <path id="path52" fill="none" stroke="#FFFFFF" stroke-width="3.9999" d="M780,366.934H111.938L-0.005,472.695H667.93L780,366.934z "/> <path id="path54" fill="#02709F" d="M119.512,410.859h460.313V72.798H119.512V410.859z"/> <path id="path56" fill="none" stroke="#FFFFFF" stroke-width="3.9999" d="M119.512,410.859h460.313V72.798H119.512V410.859z"/> <path id="path58" fill="#02709F" d="M158.389,147.007c0-33.887,35.088-38.887,35.088-38.887s271.094,0,303.75,0 c42.676,0,41.309,40.098,41.309,40.098s0,165.674,0,189.6c0,23.745-32.676,33.726-32.676,33.726s-277.28,0-307.402,0 c-30.098,0-40.073-31.323-40.073-31.323V147.007"/> <path id="path60" fill="none" stroke="#FFFFFF" stroke-width="3.9999" d="M158.389,147.007c0-33.887,35.088-38.887,35.088-38.887 s271.094,0,303.75,0c42.676,0,41.309,40.098,41.309,40.098s0,165.674,0,189.6c0,23.745-32.676,33.726-32.676,33.726 s-277.28,0-307.402,0c-30.098,0-40.073-31.323-40.073-31.323V147.007H158.389z"/> <path id="path62" fill="#02709F" d="M657.207,0.093h-460.63l-77.061,72.705h460.308L657.207,0.093"/> <path id="path64" fill="none" stroke="#FFFFFF" stroke-width="3.9999" d="M657.207,0.093h-460.63l-77.061,72.705h460.308 L657.207,0.093z"/> <path id="path66" fill="#02709F" d="M657.207,338.735V-0.005l-76.621,72.803v338.062L657.207,338.735"/> <path id="path68" fill="none" stroke="#FFFFFF" stroke-width="3.9999" d="M657.207,338.735V-0.005l-76.621,72.803v338.062 L657.207,338.735z"/> </g>  </g></g></g></g></svg>